<svg width="16" height="16" viewBox="0 0 16 16" fill="none" xmlns="http://www.w3.org/2000/svg">
<g id="Icon/Outline/all-done">
<path id="Mask" fill-rule="evenodd" clip-rule="evenodd" d="M11.0776 4.14197C10.7882 3.91397 10.3696 3.96597 10.1422 4.25597L5.43889 10.2613L3.18622 7.4633C2.95422 7.1773 2.53555 7.13064 2.24889 7.36197C1.96155 7.5933 1.91689 8.0133 2.14689 8.2993L4.92622 11.7513C5.05355 11.9086 5.24422 12 5.44622 12H5.45089C5.65355 11.9986 5.84555 11.9046 5.97089 11.744L11.1916 5.0773C11.4189 4.78797 11.3682 4.36864 11.0776 4.14197ZM14.4109 4.14197C14.1209 3.91397 13.7029 3.96597 13.4756 4.25597L8.77222 10.2613L8.36955 9.76197L7.52622 10.84L8.25955 11.7513C8.38688 11.9086 8.57755 12 8.77955 12H8.78422C8.98688 11.9986 9.17888 11.9046 9.30422 11.744L14.5249 5.0773C14.7522 4.78797 14.7015 4.36864 14.4109 4.14197ZM6.65336 7.6297L5.80869 8.70703L5.48069 8.2997C5.25002 8.01303 5.29469 7.59303 5.58202 7.3617C5.86936 7.13103 6.28869 7.17703 6.51936 7.4637L6.65336 7.6297Z" fill="#231F20"/>
<mask id="mask0" mask-type="alpha" maskUnits="userSpaceOnUse" x="2" y="3" width="13" height="9">
<path id="Mask_2" fill-rule="evenodd" clip-rule="evenodd" d="M11.0776 4.14197C10.7882 3.91397 10.3696 3.96597 10.1422 4.25597L5.43889 10.2613L3.18622 7.4633C2.95422 7.1773 2.53555 7.13064 2.24889 7.36197C1.96155 7.5933 1.91689 8.0133 2.14689 8.2993L4.92622 11.7513C5.05355 11.9086 5.24422 12 5.44622 12H5.45089C5.65355 11.9986 5.84555 11.9046 5.97089 11.744L11.1916 5.0773C11.4189 4.78797 11.3682 4.36864 11.0776 4.14197ZM14.4109 4.14197C14.1209 3.91397 13.7029 3.96597 13.4756 4.25597L8.77222 10.2613L8.36955 9.76197L7.52622 10.84L8.25955 11.7513C8.38688 11.9086 8.57755 12 8.77955 12H8.78422C8.98688 11.9986 9.17888 11.9046 9.30422 11.744L14.5249 5.0773C14.7522 4.78797 14.7015 4.36864 14.4109 4.14197ZM6.65336 7.6297L5.80869 8.70703L5.48069 8.2997C5.25002 8.01303 5.29469 7.59303 5.58202 7.3617C5.86936 7.13103 6.28869 7.17703 6.51936 7.4637L6.65336 7.6297Z" fill="white"/>
</mask>
<g mask="url(#mask0)">
<g id="&#240;&#159;&#142;&#168; Color">
<rect id="Base" width="16" height="16" fill="#B7BDCB"/>
</g>
</g>
</g>
</svg>
